<svg width="64" height="64" xmlns="http://www.w3.org/2000/svg" viewBox="0 0 256 361">
  <defs>
    <style>
      .cls-1 { fill: #e44d26; }
      .cls-2 { fill: #f16529; }
      .cls-3 { fill: #ebebeb; }
      .cls-4 { fill: #fff; }
    </style>
  </defs>
  <path class="cls-1" d="M255.77,0,233.34,324.31,127.74,360,22.31,324.29,0,0H255.77Z"/>
  <path class="cls-2" d="M128,331.06l85.48-27.6L233,22.06H128Z"/>
  <path class="cls-3" d="M128,146.89H49.92l3.91,43.59H128v-43.59Zm0-86.79H44.16l3.94,43.62H128V60.1ZM128,243.91h-.16l-37.23-11.67-2.36-26.47H46.26l4.65,52.07,77,23,.06,0v-.06Z"/>
  <path class="cls-4" d="M127.74,190.48v43.59h35.91l-3.39,38.06-32.52,10.1v44.71l77.06-23,4.39-49,4.54-51.41H127.74Zm0-86.79v43.61H205l.44-5,1-11.27,2-22.45,1-11.91H127.74Z"/>
</svg>
