<?xml version="1.0" encoding="UTF-8"?>
<svg xmlns="http://www.w3.org/2000/svg" width="144" height="40" viewBox="0 0 144 40" fill="none">
  <g id="Group">
    <path id="Vector" fill-rule="evenodd" clip-rule="evenodd" d="M40.7349 38.3863C43.2789 25.0752 48.5743 14.5982 70.7859 7.34326C42.6774 13.4341 27.9181 22.2065 23.1826 38.3863H40.7349Z" fill="#4472C4"></path>
    <path id="Vector_2" fill-rule="evenodd" clip-rule="evenodd" d="M18.2053 38.3864C23.079 22.6362 39.0413 13.7183 52.8812 10.6348C30.4622 14.7785 9.7299 22.7748 0.763672 38.3864H18.2122H18.2053Z" fill="#4472C4"></path>
    <path id="Vector_3" fill-rule="evenodd" clip-rule="evenodd" d="M0.694336 20.3359C6.20404 18.1047 13.7254 15.4508 21.3505 13.9264C30.7454 12.0485 33.2479 11.6258 41.7648 11.0923C27.6345 13.9264 12.2737 18.8115 0.694336 28.3323V20.3359Z" fill="#4472C4"></path>
    <path id="Vector_4" fill-rule="evenodd" clip-rule="evenodd" d="M0.694336 12.1591C11.534 10.7802 20.12 10.1427 33.8217 10.7456C22.3045 11.4454 11.1469 13.3579 0.694336 16.58V12.1522V12.1591Z" fill="#4472C4"></path>
    <path id="Vector_5" fill-rule="evenodd" clip-rule="evenodd" d="M0.694336 6.17236C3.7983 6.31095 12.2806 6.98309 26.8603 9.67857C17.258 8.97178 10.4417 8.5491 0.694336 9.29053V6.17929V6.17236Z" fill="#4472C4"></path>
    <path id="Vector_6" fill-rule="evenodd" clip-rule="evenodd" d="M0.694336 3.6987C3.16921 4.19761 7.40691 4.93904 13.4766 6.10316C7.18569 3.80264 4.57256 2.52766 0.694336 0.691406V3.6987Z" fill="#4472C4"></path>
    <path id="Vector_7" d="M58.9571 23.9807L72.5897 23.9115C72.8385 22.9552 72.9422 22.2138 72.9768 21.6456C73.0114 21.112 72.9422 20.5508 72.7971 19.9826C72.6588 19.4144 72.4099 18.9224 72.0228 18.4928C71.6357 18.0701 71.1034 17.7513 70.4674 17.5365C69.8314 17.3217 69.0917 17.2178 68.3105 17.2178C67.4256 17.2178 66.5822 17.3564 65.7319 17.6058C64.8816 17.8553 64.1074 18.2087 63.4022 18.6314C62.6971 19.054 62.0611 19.553 61.4942 20.1558C60.9273 20.7586 60.4711 21.2853 60.1185 21.8188C59.766 22.3524 59.3788 23.0592 58.9571 23.9807ZM71.532 34.8458C71.1448 35.6981 70.6817 36.7583 70.1563 38.0679C68.6008 38.456 67.2597 38.7054 66.1674 38.844C65.0752 38.9826 63.976 39.0588 62.9183 39.0588C61.0103 39.0588 59.3512 38.844 57.9755 38.3867C56.5652 37.9293 55.466 37.1463 54.6918 36.0169C53.9175 34.8805 53.4543 33.5778 53.3506 32.1226C53.2469 30.6675 53.4198 29.1153 53.8415 27.4523C54.4429 25.1864 55.3969 23.0661 56.7726 21.0843C58.1483 19.1372 59.842 17.5781 61.8952 16.4486C63.9414 15.3192 66.2711 14.751 68.9603 14.751C70.336 14.751 71.608 14.9311 72.7763 15.3538C73.9446 15.7419 74.8226 16.3447 75.4586 17.197C76.0946 18.0077 76.4817 19.0402 76.6269 20.2389C76.7652 21.4446 76.6615 22.7889 76.2743 24.2025C76.1361 24.7707 75.9563 25.2973 75.7075 25.7962L58.2658 25.8655C57.9824 26.7178 57.8096 27.3553 57.6644 27.778C57.2427 29.3717 57.2081 30.8546 57.5261 32.2058C57.8441 33.5501 58.5838 34.5756 59.7176 35.2824C60.8513 35.9545 62.2616 36.3079 63.9898 36.3079C65.967 36.3425 68.511 35.8506 71.5458 34.8597" fill="black"></path>
    <path id="Vector_8" d="M73.2949 38.4903L81.556 30.1752L85.7246 25.9276L81.6597 15.2011H84.1C84.8052 15.2011 85.5518 15.2011 86.326 15.1664C86.7477 16.7948 87.6672 19.5942 89.0429 23.5578C93.1008 19.3448 95.7554 16.5107 97.0205 15.0971H99.212C99.8134 15.0971 100.588 15.0971 101.473 15.0625L96.2463 20.2664C95.7554 20.7237 93.9511 22.5669 90.7711 25.789C91.7943 28.6577 92.6446 30.9582 93.3843 32.7252L95.5757 38.3171C94.6563 38.2824 93.882 38.2824 93.2806 38.2824C92.5754 38.2824 91.7597 38.3171 90.8472 38.3517C90.46 36.8273 89.9277 35.095 89.2572 33.1825L87.4943 28.1934L83.6783 32.2678C81.4869 34.5337 79.5789 36.6194 77.8852 38.4626C77.0003 38.428 76.2606 38.428 75.6938 38.428C75.0923 38.428 74.2835 38.428 73.2949 38.4972" fill="black"></path>
    <path id="Vector_9" d="M105.185 18.7769C105.503 18.1048 105.89 17.1139 106.388 15.8043C108.331 15.3123 110.024 14.9936 111.4 14.8134C112.81 14.6332 114.117 14.5293 115.423 14.5293C116.799 14.5293 118.037 14.6332 119.17 14.8827C120.297 15.1321 121.182 15.5202 121.853 16.0884C122.489 16.6566 122.876 17.2941 122.91 18.0355C122.979 18.7769 122.91 19.5599 122.696 20.4053C122.413 21.4655 121.88 23.2394 121.106 25.7131C120.297 28.1938 119.585 30.4943 118.949 32.6147C118.313 34.735 117.781 36.6128 117.359 38.2759C116.55 38.2412 115.88 38.2412 115.347 38.2412C114.857 38.2412 114.145 38.2759 113.267 38.3105L115.389 32.0465L117.649 24.6114C117.013 25.034 116.516 25.3182 116.239 25.4983C115.956 25.6785 115.603 25.8171 115.216 25.9556C114.829 26.0942 114.442 26.2397 113.979 26.3783C113.557 26.5169 112.707 26.7317 111.435 27.0505C110.197 27.3692 109.278 27.6187 108.752 27.7919C107.626 28.1453 106.706 28.464 106.001 28.8174C105.296 29.1708 104.694 29.5242 104.204 29.9122C103.713 30.3003 103.284 30.723 103.035 31.1179C102.717 31.6168 102.468 32.1088 102.33 32.6424C102.116 33.4531 102.192 34.2015 102.51 34.8043C102.828 35.4072 103.36 35.8298 104.031 36.0793C104.701 36.3287 105.586 36.4327 106.609 36.4327C107.245 36.4327 107.95 36.398 108.656 36.2941C109.361 36.1902 110.384 35.9753 111.656 35.5873C111.303 36.1902 110.806 37.0702 110.211 38.3105C109.043 38.5253 108.089 38.6639 107.384 38.7332C106.678 38.8025 106.008 38.8025 105.372 38.8025C103.291 38.8025 101.701 38.5877 100.678 38.0957C99.6202 37.6037 98.9497 36.8554 98.6317 35.8645C98.3137 34.8736 98.3137 33.7788 98.5971 32.6077C98.7769 31.9356 99.0534 31.2981 99.4059 30.6953C99.7585 30.0924 100.18 29.6004 100.643 29.1015C101.1 28.6026 101.736 28.1453 102.517 27.688C103.291 27.2306 104.072 26.801 104.847 26.5169C105.621 26.1982 106.54 25.9141 107.563 25.5953C108.586 25.2766 110.211 24.8885 112.437 24.355C113.142 24.2164 113.778 24.0362 114.276 23.8977C114.808 23.7175 115.264 23.5789 115.652 23.4403C116.039 23.3017 116.426 23.0869 116.744 22.9068C117.062 22.692 117.38 22.4494 117.698 22.1307C118.016 21.8466 118.265 21.5278 118.438 21.2091C118.617 20.8904 118.756 20.6063 118.825 20.2875C119.004 19.5461 118.928 18.9086 118.576 18.375C118.223 17.8415 117.691 17.4534 116.951 17.2386C116.212 17.0238 115.327 16.9199 114.269 16.9199C113.28 16.9199 112.223 16.9892 111.165 17.1693C110.073 17.3495 109.119 17.5227 108.303 17.7722C107.494 18.0216 106.43 18.3057 105.199 18.7631" fill="black"></path>
    <path id="Vector_10" d="M126.899 34.5615H130.148L129.761 32.0808C129.623 31.0899 129.512 30.2723 129.478 29.6417C129.263 30.2099 128.911 30.882 128.489 31.6581L126.899 34.5615ZM123.332 38.4211L128.911 28.5469H130.466L132.091 38.4211H130.819L130.328 35.587H126.339L124.749 38.4211H123.339H123.332Z" fill="black"></path>
    <path id="Vector_11" d="M138.416 34.5268L138.665 33.3973H142.972L142.122 37.4301C141.589 37.7835 140.953 38.0676 140.248 38.2824C139.543 38.4972 138.873 38.6012 138.202 38.6012C136.75 38.6012 135.693 38.1785 134.987 37.2916C134.386 36.5501 134.103 35.6285 134.103 34.4575C134.103 33.2864 134.351 32.1916 134.877 31.2007C135.409 30.2099 136.045 29.5031 136.854 29.0388C137.628 28.5815 138.548 28.332 139.502 28.332C140.207 28.332 140.843 28.4706 141.375 28.7201C141.942 28.9695 142.364 29.3229 142.647 29.7456C142.931 30.1683 143.138 30.7365 143.283 31.4086L141.977 31.5472C141.838 30.8751 141.555 30.3415 141.092 29.9881C140.67 29.6347 140.103 29.4546 139.398 29.4546C138.693 29.4546 138.022 29.6694 137.386 30.0574C136.75 30.4455 136.294 31.0483 135.9 31.8244C135.547 32.6005 135.333 33.4874 135.333 34.5129C135.333 35.5385 135.582 36.2452 136.073 36.7788C136.564 37.2708 137.234 37.5549 138.084 37.5549C138.935 37.5549 139.847 37.2708 140.836 36.7026L141.292 34.5753L138.396 34.506L138.416 34.5268Z" fill="black"></path>
  </g>
</svg>
